<svg id="SvgjsSvg1006" width="999.0124816894531" height="1026.000036239624" xmlns="http://www.w3.org/2000/svg" version="1.1" xmlns:xlink="http://www.w3.org/1999/xlink" xmlns:svgjs="http://svgjs.com/svgjs"><defs id="SvgjsDefs1007"><marker id="SvgjsMarker1034" markerWidth="14" markerHeight="12" refX="16" refY="6" viewBox="0 0 14 12" orient="auto" markerUnits="userSpaceOnUse" stroke-dasharray="0,0"><path id="SvgjsPath1035" d="M1,1 L14,6 L1,11L1,1" fill="#ffffff" stroke="#323232" stroke-width="2"></path></marker><marker id="SvgjsMarker1050" markerWidth="14" markerHeight="12" refX="16" refY="6" viewBox="0 0 14 12" orient="auto" markerUnits="userSpaceOnUse" stroke-dasharray="0,0"><path id="SvgjsPath1051" d="M1,1 L14,6 L1,11L1,1" fill="#ffffff" stroke="#323232" stroke-width="2"></path></marker><marker id="SvgjsMarker1066" markerWidth="14" markerHeight="12" refX="16" refY="6" viewBox="0 0 14 12" orient="auto" markerUnits="userSpaceOnUse" stroke-dasharray="0,0"><path id="SvgjsPath1067" d="M1,1 L14,6 L1,11L1,1" fill="#ffffff" stroke="#323232" stroke-width="2"></path></marker><marker id="SvgjsMarker1094" markerWidth="14" markerHeight="12" refX="16" refY="6" viewBox="0 0 14 12" orient="auto" markerUnits="userSpaceOnUse" stroke-dasharray="0,0"><path id="SvgjsPath1095" d="M1,1 L14,6 L1,11L1,1" fill="#ffffff" stroke="#323232" stroke-width="2"></path></marker><marker id="SvgjsMarker1098" markerWidth="20" markerHeight="12" refX="20" refY="6" viewBox="0 0 20 12" orient="auto" markerUnits="userSpaceOnUse" stroke-dasharray="0,0"><path id="SvgjsPath1099" d="M2,6 L10,2 L18,6 L10,10L2,6" fill="#ffffff" stroke="#323232" stroke-width="2"></path></marker><marker id="SvgjsMarker1154" markerWidth="14" markerHeight="12" refX="16" refY="6" viewBox="0 0 14 12" orient="auto" markerUnits="userSpaceOnUse" stroke-dasharray="0,0"><path id="SvgjsPath1155" d="M1,1 L14,6 L1,11L1,1" fill="#ffffff" stroke="#323232" stroke-width="2"></path></marker><marker id="SvgjsMarker1162" markerWidth="14" markerHeight="12" refX="16" refY="6" viewBox="0 0 14 12" orient="auto" markerUnits="userSpaceOnUse" stroke-dasharray="0,0"><path id="SvgjsPath1163" d="M1,1 L14,6 L1,11L1,1" fill="#ffffff" stroke="#323232" stroke-width="2"></path></marker><marker id="SvgjsMarker1166" markerWidth="20" markerHeight="12" refX="20" refY="6" viewBox="0 0 20 12" orient="auto" markerUnits="userSpaceOnUse" stroke-dasharray="0,0"><path id="SvgjsPath1167" d="M2,6 L10,2 L18,6 L10,10L2,6" fill="#ffffff" stroke="#323232" stroke-width="2"></path></marker></defs><g id="SvgjsG1008" transform="translate(77.01248168945312,240.99999809265137)"><path id="SvgjsPath1009" d="M 0 4Q 0 0 4 0L 226 0Q 230 0 230 4L 230 86Q 230 90 226 90L 4 90Q 0 90 0 86Z" stroke="rgba(50,50,50,1)" stroke-width="2" fill-opacity="1" fill="#ffffff"></path><path id="SvgjsPath1010" d="M 0 30L 230 30M 0 60L 230 60" stroke="rgba(50,50,50,1)" stroke-width="2" fill="none"></path><path id="SvgjsPath1011" d="M 0 0L 230 0L 230 90L 0 90Z" stroke="none" fill="none"></path><g id="SvgjsG1012"><text id="SvgjsText1013" font-family="微软雅黑" text-anchor="middle" font-size="13px" width="210px" fill="#323232" font-weight="700" align="middle" anchor="middle" family="微软雅黑" size="13px" weight="700" font-style="italic" opacity="1" y="5.05" transform="rotate(0)"><tspan id="SvgjsTspan1014" dy="16" x="115"><tspan id="SvgjsTspan1015" style="text-decoration:;">ViewGroup</tspan></tspan></text></g><g id="SvgjsG1016"><text id="SvgjsText1017" font-family="微软雅黑" text-anchor="start" font-size="13px" width="210px" fill="#323232" font-weight="400" align="middle" anchor="start" family="微软雅黑" size="13px" weight="400" font-style="" opacity="1" y="35.05" transform="rotate(0)"></text></g><g id="SvgjsG1018"><text id="SvgjsText1019" font-family="微软雅黑" text-anchor="start" font-size="13px" width="210px" fill="#323232" font-weight="400" align="middle" anchor="start" family="微软雅黑" size="13px" weight="400" font-style="" opacity="1" y="65.05" transform="rotate(0)"></text></g></g><g id="SvgjsG1020" transform="translate(77.01248168945312,61.99999809265137)"><path id="SvgjsPath1021" d="M 0 4Q 0 0 4 0L 226 0Q 230 0 230 4L 230 86Q 230 90 226 90L 4 90Q 0 90 0 86Z" stroke="rgba(50,50,50,1)" stroke-width="2" fill-opacity="1" fill="#ffffff"></path><path id="SvgjsPath1022" d="M 0 30L 230 30M 0 62L 230 62" stroke="rgba(50,50,50,1)" stroke-width="2" fill="none"></path><path id="SvgjsPath1023" d="M 0 0L 230 0L 230 90L 0 90Z" stroke="none" fill="none"></path><g id="SvgjsG1024"><text id="SvgjsText1025" font-family="微软雅黑" text-anchor="middle" font-size="13px" width="210px" fill="#323232" font-weight="700" align="middle" anchor="middle" family="微软雅黑" size="13px" weight="700" font-style="" opacity="1" y="5.05" transform="rotate(0)"><tspan id="SvgjsTspan1026" dy="16" x="115"><tspan id="SvgjsTspan1027" style="text-decoration:;">View</tspan></tspan></text></g><g id="SvgjsG1028"><text id="SvgjsText1029" font-family="微软雅黑" text-anchor="start" font-size="13px" width="210px" fill="#323232" font-weight="400" align="middle" anchor="start" family="微软雅黑" size="13px" weight="400" font-style="" opacity="1" y="35.05" transform="rotate(0)"></text></g><g id="SvgjsG1030"><text id="SvgjsText1031" font-family="微软雅黑" text-anchor="start" font-size="13px" width="210px" fill="#323232" font-weight="400" align="middle" anchor="start" family="微软雅黑" size="13px" weight="400" font-style="" opacity="1" y="67.05" transform="rotate(0)"></text></g></g><g id="SvgjsG1032"><path id="SvgjsPath1033" d="M192.01248168945312 240.99999809265137L192.01248168945312 196.49999809265137L192.01248168945312 196.49999809265137L192.01248168945312 151.99999809265137" stroke="#323232" stroke-width="2" fill="none" marker-end="url(#SvgjsMarker1034)"></path></g><g id="SvgjsG1036" transform="translate(77.01248168945312,428.99999809265137)"><path id="SvgjsPath1037" d="M 0 4Q 0 0 4 0L 226 0Q 230 0 230 4L 230 86Q 230 90 226 90L 4 90Q 0 90 0 86Z" stroke="rgba(50,50,50,1)" stroke-width="2" fill-opacity="1" fill="#ffffff"></path><path id="SvgjsPath1038" d="M 0 30L 230 30M 0 62L 230 62" stroke="rgba(50,50,50,1)" stroke-width="2" fill="none"></path><path id="SvgjsPath1039" d="M 0 0L 230 0L 230 90L 0 90Z" stroke="none" fill="none"></path><g id="SvgjsG1040"><text id="SvgjsText1041" font-family="微软雅黑" text-anchor="middle" font-size="13px" width="210px" fill="#323232" font-weight="700" align="middle" anchor="middle" family="微软雅黑" size="13px" weight="700" font-style="" opacity="1" y="5.05" transform="rotate(0)"><tspan id="SvgjsTspan1042" dy="16" x="115"><tspan id="SvgjsTspan1043" style="text-decoration:;">LinearLayout</tspan></tspan></text></g><g id="SvgjsG1044"><text id="SvgjsText1045" font-family="微软雅黑" text-anchor="start" font-size="13px" width="210px" fill="#323232" font-weight="400" align="middle" anchor="start" family="微软雅黑" size="13px" weight="400" font-style="" opacity="1" y="35.05" transform="rotate(0)"></text></g><g id="SvgjsG1046"><text id="SvgjsText1047" font-family="微软雅黑" text-anchor="start" font-size="13px" width="210px" fill="#323232" font-weight="400" align="middle" anchor="start" family="微软雅黑" size="13px" weight="400" font-style="" opacity="1" y="67.05" transform="rotate(0)"></text></g></g><g id="SvgjsG1048"><path id="SvgjsPath1049" d="M192.01248168945312 428.99999809265137L192.01248168945312 379.99999809265137L192.01248168945312 379.99999809265137L192.01248168945312 330.99999809265137" stroke="#323232" stroke-width="2" fill="none" marker-end="url(#SvgjsMarker1050)"></path></g><g id="SvgjsG1052" transform="translate(345.0124816894531,428.99999809265137)"><path id="SvgjsPath1053" d="M 0 4Q 0 0 4 0L 226 0Q 230 0 230 4L 230 86Q 230 90 226 90L 4 90Q 0 90 0 86Z" stroke="rgba(50,50,50,1)" stroke-width="2" fill-opacity="1" fill="#ffffff"></path><path id="SvgjsPath1054" d="M 0 30L 230 30M 0 62L 230 62" stroke="rgba(50,50,50,1)" stroke-width="2" fill="none"></path><path id="SvgjsPath1055" d="M 0 0L 230 0L 230 90L 0 90Z" stroke="none" fill="none"></path><g id="SvgjsG1056"><text id="SvgjsText1057" font-family="微软雅黑" text-anchor="middle" font-size="13px" width="210px" fill="#323232" font-weight="700" align="middle" anchor="middle" family="微软雅黑" size="13px" weight="700" font-style="" opacity="1" y="5.05" transform="rotate(0)"><tspan id="SvgjsTspan1058" dy="16" x="115"><tspan id="SvgjsTspan1059" style="text-decoration:;">RecyclerView</tspan></tspan></text></g><g id="SvgjsG1060"><text id="SvgjsText1061" font-family="微软雅黑" text-anchor="start" font-size="13px" width="210px" fill="#323232" font-weight="400" align="middle" anchor="start" family="微软雅黑" size="13px" weight="400" font-style="" opacity="1" y="35.05" transform="rotate(0)"></text></g><g id="SvgjsG1062"><text id="SvgjsText1063" font-family="微软雅黑" text-anchor="start" font-size="13px" width="210px" fill="#323232" font-weight="400" align="middle" anchor="start" family="微软雅黑" size="13px" weight="400" font-style="" opacity="1" y="67.05" transform="rotate(0)"></text></g></g><g id="SvgjsG1064"><path id="SvgjsPath1065" d="M460.0124816894531 428.99999809265137L460.0124816894531 379.99999809265137L192.01248168945312 379.99999809265137L192.01248168945312 330.99999809265137" stroke="#323232" stroke-width="2" fill="none" marker-end="url(#SvgjsMarker1066)"></path></g><g id="SvgjsG1068" transform="translate(396.0124816894531,908.9999980926514)"><path id="SvgjsPath1069" d="M 0 4Q 0 0 4 0L 226 0Q 230 0 230 4L 230 86Q 230 90 226 90L 4 90Q 0 90 0 86Z" stroke="rgba(50,50,50,1)" stroke-width="2" fill-opacity="1" fill="#ffffff"></path><path id="SvgjsPath1070" d="M 0 30L 230 30M 0 62L 230 62" stroke="rgba(50,50,50,1)" stroke-width="2" fill="none"></path><path id="SvgjsPath1071" d="M 0 0L 230 0L 230 90L 0 90Z" stroke="none" fill="none"></path><g id="SvgjsG1072"><text id="SvgjsText1073" font-family="微软雅黑" text-anchor="middle" font-size="13px" width="210px" fill="#323232" font-weight="700" align="middle" anchor="middle" family="微软雅黑" size="13px" weight="700" font-style="" opacity="1" y="5.05" transform="rotate(0)"><tspan id="SvgjsTspan1074" dy="16" x="115"><tspan id="SvgjsTspan1075" style="text-decoration:;">Fragment</tspan></tspan></text></g><g id="SvgjsG1076"><text id="SvgjsText1077" font-family="微软雅黑" text-anchor="start" font-size="13px" width="210px" fill="#323232" font-weight="400" align="middle" anchor="start" family="微软雅黑" size="13px" weight="400" font-style="" opacity="1" y="35.05" transform="rotate(0)"></text></g><g id="SvgjsG1078"><text id="SvgjsText1079" font-family="微软雅黑" text-anchor="start" font-size="13px" width="210px" fill="#323232" font-weight="400" align="middle" anchor="start" family="微软雅黑" size="13px" weight="400" font-style="" opacity="1" y="67.05" transform="rotate(0)"></text></g></g><g id="SvgjsG1080" transform="translate(375.0124816894531,240.99999809265137)"><path id="SvgjsPath1081" d="M 0 4Q 0 0 4 0L 226 0Q 230 0 230 4L 230 86Q 230 90 226 90L 4 90Q 0 90 0 86Z" stroke="rgba(50,50,50,1)" stroke-width="2" fill-opacity="1" fill="#ffffff"></path><path id="SvgjsPath1082" d="M 0 30L 230 30M 0 62L 230 62" stroke="rgba(50,50,50,1)" stroke-width="2" fill="none"></path><path id="SvgjsPath1083" d="M 0 0L 230 0L 230 90L 0 90Z" stroke="none" fill="none"></path><g id="SvgjsG1084"><text id="SvgjsText1085" font-family="微软雅黑" text-anchor="middle" font-size="13px" width="210px" fill="#323232" font-weight="700" align="middle" anchor="middle" family="微软雅黑" size="13px" weight="700" font-style="" opacity="1" y="5.05" transform="rotate(0)"><tspan id="SvgjsTspan1086" dy="16" x="115"><tspan id="SvgjsTspan1087" style="text-decoration:;">TextView</tspan></tspan></text></g><g id="SvgjsG1088"><text id="SvgjsText1089" font-family="微软雅黑" text-anchor="start" font-size="13px" width="210px" fill="#323232" font-weight="400" align="middle" anchor="start" family="微软雅黑" size="13px" weight="400" font-style="" opacity="1" y="35.05" transform="rotate(0)"></text></g><g id="SvgjsG1090"><text id="SvgjsText1091" font-family="微软雅黑" text-anchor="start" font-size="13px" width="210px" fill="#323232" font-weight="400" align="middle" anchor="start" family="微软雅黑" size="13px" weight="400" font-style="" opacity="1" y="67.05" transform="rotate(0)"></text></g></g><g id="SvgjsG1092"><path id="SvgjsPath1093" d="M490.0124816894531 240.99999809265137L490.0124816894531 196.49999809265137L192.01248168945312 196.49999809265137L192.01248168945312 151.99999809265137" stroke="#323232" stroke-width="2" fill="none" marker-end="url(#SvgjsMarker1094)"></path></g><g id="SvgjsG1096"><path id="SvgjsPath1097" d="M77.01248168945312 106.99999809265137L47.012481689453125 106.99999809265137L47.012481689453125 285.99999809265137L77.01248168945312 285.99999809265137" stroke="#323232" stroke-width="2" fill="none" marker-end="url(#SvgjsMarker1098)"></path><rect id="SvgjsRect1100" width="25" height="16" x="47.91249084472656" y="98.39999961853027" fill="#ffffff"></rect><text id="SvgjsText1101" font-family="微软雅黑" text-anchor="middle" font-size="13px" width="25px" fill="#323232" font-weight="400" align="top" anchor="middle" family="微软雅黑" size="13px" weight="400" font-style="" opacity="1" y="96.44999961853027" transform="rotate(0)"><tspan id="SvgjsTspan1102" dy="16" x="60.41249084472656"><tspan id="SvgjsTspan1103" style="text-decoration:;">0...n</tspan></tspan></text></g><g id="SvgjsG1104" transform="translate(124.01248168945312,24.999998092651367)"><path id="SvgjsPath1105" d="M 0 0L 184 0L 200 16L 200 43L 0 43L 0 0Z" stroke="none" fill-opacity="1" fill="#ffffaa"></path><path id="SvgjsPath1106" d="M 184 0L 184 16L 200 16Z" stroke="none" fill-opacity="1" fill="#cdcdcd"></path><path id="SvgjsPath1107" d="M 0 0L 184 0L 200 16L 200 43L 0 43L 0 0Z" stroke="none" fill="none"></path><g id="SvgjsG1108"><text id="SvgjsText1109" font-family="微软雅黑" text-anchor="middle" font-size="13px" width="180px" fill="#323232" font-weight="400" align="middle" anchor="middle" family="微软雅黑" size="13px" weight="400" font-style="" opacity="1" y="11.55" transform="rotate(0)"><tspan id="SvgjsTspan1110" dy="16" x="100"><tspan id="SvgjsTspan1111" style="text-decoration:;">LayoutInflater.inflate():View</tspan></tspan></text></g></g><g id="SvgjsG1112" transform="translate(25.012481689453125,611.9999980926514)"><path id="SvgjsPath1113" d="M 0 4Q 0 0 4 0L 226 0Q 230 0 230 4L 230 86Q 230 90 226 90L 4 90Q 0 90 0 86Z" stroke="rgba(50,50,50,1)" stroke-width="2" fill-opacity="1" fill="#ffffff"></path><path id="SvgjsPath1114" d="M 0 30L 230 30M 0 62L 230 62" stroke="rgba(50,50,50,1)" stroke-width="2" fill="none"></path><path id="SvgjsPath1115" d="M 0 0L 230 0L 230 90L 0 90Z" stroke="none" fill="none"></path><g id="SvgjsG1116"><text id="SvgjsText1117" font-family="微软雅黑" text-anchor="middle" font-size="13px" width="210px" fill="#323232" font-weight="700" align="middle" anchor="middle" family="微软雅黑" size="13px" weight="700" font-style="italic" opacity="1" y="5.05" transform="rotate(0)"><tspan id="SvgjsTspan1118" dy="16" x="115"><tspan id="SvgjsTspan1119" style="text-decoration:;">Context</tspan></tspan></text></g><g id="SvgjsG1120"><text id="SvgjsText1121" font-family="微软雅黑" text-anchor="start" font-size="13px" width="210px" fill="#323232" font-weight="400" align="middle" anchor="start" family="微软雅黑" size="13px" weight="400" font-style="" opacity="1" y="35.05" transform="rotate(0)"></text></g><g id="SvgjsG1122"><text id="SvgjsText1123" font-family="微软雅黑" text-anchor="start" font-size="13px" width="210px" fill="#323232" font-weight="400" align="middle" anchor="start" family="微软雅黑" size="13px" weight="400" font-style="" opacity="1" y="67.05" transform="rotate(0)"></text></g></g><g id="SvgjsG1124" transform="translate(25.012481689453125,908.9999980926514)"><path id="SvgjsPath1125" d="M 0 4Q 0 0 4 0L 226 0Q 230 0 230 4L 230 88Q 230 92 226 92L 4 92Q 0 92 0 88Z" stroke="rgba(50,50,50,1)" stroke-width="2" fill-opacity="1" fill="#ffffff"></path><path id="SvgjsPath1126" d="M 0 30L 230 30M 0 60L 230 60" stroke="rgba(50,50,50,1)" stroke-width="2" fill="none"></path><path id="SvgjsPath1127" d="M 0 0L 230 0L 230 92L 0 92Z" stroke="none" fill="none"></path><g id="SvgjsG1128"><text id="SvgjsText1129" font-family="微软雅黑" text-anchor="middle" font-size="13px" width="210px" fill="#323232" font-weight="700" align="middle" anchor="middle" family="微软雅黑" size="13px" weight="700" font-style="" opacity="1" y="5.05" transform="rotate(0)"><tspan id="SvgjsTspan1130" dy="16" x="115"><tspan id="SvgjsTspan1131" style="text-decoration:;">AppCompatActivity</tspan></tspan></text></g><g id="SvgjsG1132"><text id="SvgjsText1133" font-family="微软雅黑" text-anchor="start" font-size="13px" width="210px" fill="#323232" font-weight="400" align="middle" anchor="start" family="微软雅黑" size="13px" weight="400" font-style="" opacity="1" y="35.05" transform="rotate(0)"></text></g><g id="SvgjsG1134"><text id="SvgjsText1135" font-family="微软雅黑" text-anchor="start" font-size="13px" width="210px" fill="#323232" font-weight="400" align="middle" anchor="start" family="微软雅黑" size="13px" weight="400" font-style="" opacity="1" y="58.05" transform="rotate(0)"><tspan id="SvgjsTspan1136" dy="16" x="10"><tspan id="SvgjsTspan1137" style="text-decoration:;">+ addFragment()</tspan></tspan><tspan id="SvgjsTspan1138" dy="16" x="10"><tspan id="SvgjsTspan1139" style="text-decoration:;">- removeFragment()</tspan></tspan></text></g></g><g id="SvgjsG1140" transform="translate(25.012481689453125,765.9999980926514)"><path id="SvgjsPath1141" d="M 0 4Q 0 0 4 0L 226 0Q 230 0 230 4L 230 86Q 230 90 226 90L 4 90Q 0 90 0 86Z" stroke="rgba(50,50,50,1)" stroke-width="2" fill-opacity="1" fill="#ffffff"></path><path id="SvgjsPath1142" d="M 0 30L 230 30M 0 62L 230 62" stroke="rgba(50,50,50,1)" stroke-width="2" fill="none"></path><path id="SvgjsPath1143" d="M 0 0L 230 0L 230 90L 0 90Z" stroke="none" fill="none"></path><g id="SvgjsG1144"><text id="SvgjsText1145" font-family="微软雅黑" text-anchor="middle" font-size="13px" width="210px" fill="#323232" font-weight="700" align="middle" anchor="middle" family="微软雅黑" size="13px" weight="700" font-style="" opacity="1" y="5.05" transform="rotate(0)"><tspan id="SvgjsTspan1146" dy="16" x="115"><tspan id="SvgjsTspan1147" style="text-decoration:;">FragmentActivity</tspan></tspan></text></g><g id="SvgjsG1148"><text id="SvgjsText1149" font-family="微软雅黑" text-anchor="start" font-size="13px" width="210px" fill="#323232" font-weight="400" align="middle" anchor="start" family="微软雅黑" size="13px" weight="400" font-style="" opacity="1" y="35.05" transform="rotate(0)"></text></g><g id="SvgjsG1150"><text id="SvgjsText1151" font-family="微软雅黑" text-anchor="start" font-size="13px" width="210px" fill="#323232" font-weight="400" align="middle" anchor="start" family="微软雅黑" size="13px" weight="400" font-style="" opacity="1" y="67.05" transform="rotate(0)"></text></g></g><g id="SvgjsG1152"><path id="SvgjsPath1153" d="M140.01248168945312 765.9999980926514L140.01248168945312 733.9999980926514L140.01248168945312 733.9999980926514L140.01248168945312 701.9999980926514" stroke="#323232" stroke-width="2" fill="none" marker-end="url(#SvgjsMarker1154)"></path><rect id="SvgjsRect1156" width="78" height="16" x="101.01248168945312" y="725.9999980926514" fill="#ffffff"></rect><text id="SvgjsText1157" font-family="微软雅黑" text-anchor="middle" font-size="13px" width="78px" fill="#323232" font-weight="400" align="top" anchor="middle" family="微软雅黑" size="13px" weight="400" font-style="" opacity="1" y="724.0499980926513" transform="rotate(0)"><tspan id="SvgjsTspan1158" dy="16" x="140.01248168945312"><tspan id="SvgjsTspan1159" style="text-decoration:;">Compressed</tspan></tspan></text></g><g id="SvgjsG1160"><path id="SvgjsPath1161" d="M140.01248168945312 908.9999980926514L140.01248168945312 882.4999980926514L140.01248168945312 882.4999980926514L140.01248168945312 855.9999980926514" stroke="#323232" stroke-width="2" fill="none" marker-end="url(#SvgjsMarker1162)"></path></g><g id="SvgjsG1164"><path id="SvgjsPath1165" d="M396.0124816894531 953.9999980926514L325.5124816894531 953.9999980926514L325.5124816894531 953.9999980926514L255.01248168945312 953.9999980926514" stroke="#323232" stroke-width="2" fill="none" marker-end="url(#SvgjsMarker1166)"></path><rect id="SvgjsRect1168" width="25" height="16" x="368.4124816894531" y="945.9999980926514" fill="#ffffff"></rect><text id="SvgjsText1169" font-family="微软雅黑" text-anchor="middle" font-size="13px" width="25px" fill="#323232" font-weight="400" align="top" anchor="middle" family="微软雅黑" size="13px" weight="400" font-style="" opacity="1" y="944.0499980926513" transform="rotate(0)"><tspan id="SvgjsTspan1170" dy="16" x="380.9124816894531"><tspan id="SvgjsTspan1171" style="text-decoration:;">0...n </tspan></tspan></text></g><g id="SvgjsG1172" transform="translate(553.0124816894531,823.3999996185303)"><path id="SvgjsPath1173" d="M 0 0L 405 0L 421 16L 421 85L 0 85L 0 0Z" stroke="none" fill-opacity="1" fill="#ffffaa"></path><path id="SvgjsPath1174" d="M 405 0L 405 16L 421 16Z" stroke="none" fill-opacity="1" fill="#cdcdcd"></path><path id="SvgjsPath1175" d="M 0 0L 405 0L 421 16L 421 85L 0 85L 0 0Z" stroke="none" fill="none"></path><g id="SvgjsG1176"><text id="SvgjsText1177" font-family="微软雅黑" text-anchor="middle" font-size="13px" width="401px" fill="#323232" font-weight="400" align="middle" anchor="middle" family="微软雅黑" size="13px" weight="400" font-style="" opacity="1" y="16.55" transform="rotate(0)"><tspan id="SvgjsTspan1178" dy="16" x="210.5"><tspan id="SvgjsTspan1179" style="text-decoration:;">Fragment 用来解决Activity中的数据传递问题，使用Intent进行传递</tspan></tspan><tspan id="SvgjsTspan1180" dy="16" x="210.5"><tspan id="SvgjsTspan1181" style="text-decoration:;">的时候，只可以传递基本类型和String，但是只能通过序列化传递引</tspan></tspan><tspan id="SvgjsTspan1182" dy="16" x="210.5"><tspan id="SvgjsTspan1183" style="text-decoration:;">用类型。而同一个Activity则可以通过相同的上下文共享数据。</tspan></tspan></text></g></g></svg>