<?xml version="1.0" standalone="no"?><!DOCTYPE svg PUBLIC "-//W3C//DTD SVG 1.1//EN" "http://www.w3.org/Graphics/SVG/1.1/DTD/svg11.dtd"><svg t="1587553603102" class="icon" viewBox="0 0 1024 1024" version="1.1" xmlns="http://www.w3.org/2000/svg" p-id="857" width="32" height="32" xmlns:xlink="http://www.w3.org/1999/xlink"><defs><style type="text/css"></style></defs><path d="M819.2 51.2a51.2 51.2 0 0 1 51.2 51.2l0.0256 619.6992c18.9952 5.376 36.352 14.6432 51.2 26.88L921.6 665.6a25.6 25.6 0 0 1 51.2 0v179.2c0 1.3056-0.1024 2.5856-0.2816 3.84a140.8 140.8 0 0 1-249.088 98.56h-13.2096a140.544 140.544 0 0 1-108.6208 51.2 140.5184 140.5184 0 0 1-108.5952-51.2H153.6a51.2 51.2 0 0 1-51.2-51.2V102.4a51.2 51.2 0 0 1 51.2-51.2h665.6z m12.8 716.8a89.6 89.6 0 0 0-78.1056 133.5296l0.1792 0.3584 0.9472 1.5872-0.384-0.6144 0.4096 0.6912-0.0256-0.0768 0.128 0.2304 1.1776 1.8944 0.1536 0.2304 0.2048 0.3328 0.384 0.5632-0.3584-0.512 0.8192 1.2288 0.3328 0.512 0.3584 0.512 0.0256 0.0256 0.512 0.7424 0.3328 0.4608 0.256 0.3328 0.2304 0.3328 0.1024 0.1536 1.2544 1.664a90.0096 90.0096 0 0 0 17.0496 16.896l0.6912 0.512 0.9984 0.7424-0.2304-0.1536 0.2304 0.1536 0.5632 0.4096 0.4864 0.3328 0.6656 0.4864 0.896 0.5888 1.024 0.6912h0.0512l0.896 0.5888 0.3584 0.256 1.6128 0.9472 0.0512 0.0256 0.0768 0.0512 0.1792 0.1024 0.256 0.1536 0.8704 0.512 0.4352 0.2304 1.3312 0.7424 0.6656 0.3584-0.4608-0.256 0.7168 0.4096 1.8944 0.9472 2.688 1.28 0.7424 0.3328-1.0496-0.4864 3.0464 1.3568-1.92-0.8448 0.9472 0.4352 0.9728 0.4096 0.4864 0.1792 0.5632 0.2304 0.8704 0.3584 1.9456 0.7424-1.8944-0.7424 3.2 1.2032a88.9088 88.9088 0 0 0 10.8032 2.9696l-0.3072-0.1024 1.6128 0.3584 1.152 0.2048 1.4592 0.2304-2.4832-0.4352 3.072 0.512-0.4096-0.0256 0.8192 0.128-0.4864-0.1024 2.4832 0.384a89.6 89.6 0 0 0 53.7856-167.8592l-4.3264-2.176-4.5568-1.9968a88.9344 88.9344 0 0 0-5.12-1.8688l-0.3328-0.128-1.0496-0.3328-0.9728-0.2816-2.048-0.6144-0.1024-0.0256-0.256-0.0512-0.1024-0.0512a142.592 142.592 0 0 0-2.4576-0.6144l2.2528 0.5632-2.3808-0.5888-2.304-0.5376-0.7168-0.1536-2.4576-0.4352-3.0976-0.4864-1.1008-0.1536 0.9728 0.128-2.56-0.3072-0.8448-0.1024-0.4608-0.0256-0.7424-0.0768-0.256-0.0256 0.1792 0.0256h0.0768l1.2032 0.1024 2.432 0.2816-3.712-0.384-0.3072-0.0256-1.152-0.0768-2.5088-0.128A91.1872 91.1872 0 0 0 832 768z m-271.5136 169.216l0.8448 0.4608 0.512 0.2304 1.3568 0.6656 0.128 0.0512 0.8704 0.4096 0.3328 0.1536 0.7424 0.3328-0.6912-0.3072 0.6656 0.3072 1.9968 0.8448-0.896-0.384 1.4336 0.6144 1.9968 0.768-2.048-0.7936 1.9968 0.7936 2.8416 1.024 0.7168 0.2304 0.9728 0.3328 0.6912 0.2304 1.3312 0.384-0.9216-0.2816 1.8688 0.5632 0.5376 0.128-1.0752-0.2816c1.5616 0.4608 3.1488 0.8704 4.7616 1.2288l-1.8432-0.4608 2.4832 0.6144 0.3328 0.0512-0.384-0.0768 1.8432 0.4096 0.512 0.0768-0.4864-0.1024 0.512 0.1024 0.5888 0.1024 1.8944 0.3328 3.6864 0.5632 1.1008 0.1024 0.256 0.0256h-0.0512l0.3584 0.0256 0.8704 0.128 2.56 0.1792-2.304-0.2048 2.944 0.256c1.7408 0.1024 3.5072 0.1536 5.2736 0.1536l5.1968-0.1536 0.6912-0.0256 3.712-0.3584-1.152 0.128 2.0224-0.2048-0.8192 0.0768 1.3568-0.128 3.6608-0.5632 1.8944-0.3328 0.5888-0.1024 0.512-0.1024-0.4864 0.1024 0.5376-0.0768 1.8176-0.4096-0.384 0.0768 0.3584-0.0512 1.7408-0.4352 1.28-0.3072-0.3584 0.1024 2.2016-0.5888 0.896-0.2816-0.3584 0.128 1.7408-0.512-0.4352 0.1024 1.1264-0.3328 1.2288-0.4352 0.4352-0.128 0.7424-0.256 2.048-0.768 2.048-0.768 1.3824-0.6144-0.896 0.384 1.9968-0.8448 0.6656-0.3072-0.6912 0.3072 1.28-0.5888-0.2048 0.1024 0.896-0.4096 0.384-0.1792 2.048-1.0496 0.9984-0.512-0.5632 0.3072 1.2544-0.64 0.7936-0.4608 0.0512-0.0256 1.0496-0.5888 0.128-0.0768 1.2288-0.6656 0.896-0.5888-0.8704 0.512 1.664-0.9984 0.8448-0.5376-0.4352 0.3328 0.8704-0.6144 2.6624-1.7664a89.9072 89.9072 0 0 0 18.7392-17.5616l1.6128-2.0992 0.0256-0.0256 0.128-0.2048h0.0256v-0.0256l0.2816-0.384 0.3328-0.4096 0.2048-0.3328 0.256-0.3328 0.3328-0.4352 0.512-0.768h0.0256l0.1792-0.2816 0.1536-0.256 0.384-0.512 0.4352-0.7168 0.3328-0.512 0.0256-0.0512 0.3584-0.5376h0.0256l0.384-0.64 0.9216-1.5104 0.3584-0.6144 0.0256-0.0512 0.5632-0.896 0.1792-0.384 0.256-0.4608 0.6912-1.2288a89.6 89.6 0 1 0-159.8464-3.4816l2.56 4.9408 1.536 2.6368h0.0256l0.1536 0.256 1.28 2.048 0.3328 0.4864-0.3584-0.512 0.8192 1.2544 0.5376 0.7424 0.1536 0.256 0.0256 0.0256 0.8448 1.2032 0.256 0.3328 0.3584 0.4864-0.128-0.1536 0.3072 0.4096 0.3072 0.384h-0.0256l0.0256 0.0256 0.1536 0.2304h0.0256l0.5632 0.7424 0.5376 0.6912 2.4064 2.9696a90.112 90.112 0 0 0 19.456 17.024l0.4608 0.3072 0.2048 0.128 0.5376 0.3328 0.0768 0.0512 2.4576 1.4848 0.768 0.4352 0.9216 0.512 0.384 0.2048 0.1024 0.0512 0.3584 0.2048 0.64 0.3328-0.128-0.0768 0.768 0.4352zM819.2 102.4H153.6v793.6l312.4992 0.0256a140.9024 140.9024 0 0 1-5.0176-47.4112A25.4464 25.4464 0 0 1 460.8 844.8v-179.2a25.6 25.6 0 0 1 51.2 0v83.4048A140.2368 140.2368 0 0 1 601.6 716.8c47.616 0 89.7024 23.6288 115.2 59.8016a140.7488 140.7488 0 0 1 102.4-59.2384V102.4zM435.2 460.8a25.6 25.6 0 0 1 25.6 25.6v102.4a25.6 25.6 0 0 1-25.6 25.6h-153.6a25.6 25.6 0 0 1-25.6-25.6v-102.4a25.6 25.6 0 0 1 51.2 0l-0.0256 76.8H332.8v-76.8a25.6 25.6 0 0 1 51.2 0v76.8h25.5744L409.6 486.4a25.6 25.6 0 0 1 25.6-25.6z m102.4 0h153.6a25.6 25.6 0 0 1 25.6 25.6v102.4a25.6 25.6 0 0 1-51.2 0l-0.0256-76.8H640v76.8a25.6 25.6 0 0 1-51.2 0v-76.8256h-25.6V588.8a25.6 25.6 0 0 1-51.2 0v-101.9648V486.4a25.6 25.6 0 0 1 25.6-25.6z m25.6-307.2a25.6 25.6 0 0 1 0 51.2h-128.0256v51.1744L563.2 256a25.6 25.6 0 0 1 0 51.2h-128.0256v51.2H563.2a25.6 25.6 0 0 1 0 51.2h-153.6a25.6 25.6 0 0 1-25.6-25.6V179.2a25.6 25.6 0 0 1 25.6-25.6h153.6z" fill="#0A515D" p-id="858"></path><path d="M601.6 768a89.6 89.6 0 1 1 0 179.2 89.6 89.6 0 0 1 0-179.2z m230.4 0a89.6 89.6 0 1 1 0 179.2 89.6 89.6 0 0 1 0-179.2z" fill="#05D2D0" p-id="859"></path></svg>